G04 DipTrace 2.4.0.2*
%INBottomMask.gbs*%
%MOMM*%
%ADD17C,1.0*%
%ADD42R,1.9X1.9*%
%ADD51C,1.7*%
%ADD54C,3.0*%
%ADD63C,1.9*%
%ADD87O,1.2X1.5*%
%ADD89R,1.2X1.5*%
%ADD93C,1.978*%
%ADD95C,1.978*%
%ADD106C,3.2*%
%ADD109C,2.7*%
%ADD111R,2.7X2.7*%
%FSLAX53Y53*%
G04*
G71*
G90*
G75*
G01*
%LNBotMask*%
%LPD*%
D111*
X29012Y94294D3*
D109*
X23932D3*
D51*
X16312Y94243D3*
X13772Y94294D3*
D111*
X78860Y97786D3*
D109*
X83940D3*
D51*
X91560Y97837D3*
X94100Y97786D3*
D109*
X35200Y48040D3*
Y53090D3*
D51*
X72900Y43040D3*
Y48040D3*
D106*
X23456Y89373D3*
X28456D3*
X33456D3*
X78543D3*
X83543D3*
X88543D3*
D111*
X48000Y92640D3*
D109*
X53000D3*
D111*
X59810Y92706D3*
D109*
X64810D3*
D51*
X37600Y89840D3*
Y95780D3*
X71400Y89640D3*
Y95580D3*
D95*
X42800Y74440D3*
D93*
X32024Y85216D3*
D95*
X69200Y74440D3*
D93*
X79976Y85216D3*
D89*
X63600Y57840D3*
D87*
X64870D3*
X66140D3*
X67410D3*
D89*
X70000D3*
D87*
X71270D3*
D42*
X23453Y18247D3*
D63*
X20913D3*
X23453Y20787D3*
X20913D3*
X23453Y23327D3*
X20913D3*
X23453Y25867D3*
X20913D3*
D17*
X11863Y47619D3*
Y33647D3*
X13133Y47619D3*
Y33647D3*
D54*
X93786Y29678D3*
Y13960D3*
X20281Y65878D3*
X79495Y75085D3*
X17578Y29678D3*
Y13960D3*
M02*
