G04 DipTrace 2.4.0.2*
%INBottomSilk.gbo*%
%MOMM*%
%ADD116C,0.235*%
%FSLAX53Y53*%
G04*
G71*
G90*
G75*
G01*
%LNBotSilk*%
%LPD*%
X70628Y78954D2*
D116*
Y79026D1*
X70556Y79173D1*
X70483Y79245D1*
X70337Y79317D1*
X70045D1*
X69901Y79245D1*
X69828Y79173D1*
X69754Y79026D1*
Y78881D1*
X69828Y78735D1*
X69973Y78517D1*
X70702Y77788D1*
X69682D1*
X68773Y79317D2*
X68992Y79245D1*
X69139Y79026D1*
X69211Y78662D1*
Y78443D1*
X69139Y78079D1*
X68992Y77860D1*
X68773Y77788D1*
X68628D1*
X68409Y77860D1*
X68264Y78079D1*
X68190Y78443D1*
Y78662D1*
X68264Y79026D1*
X68409Y79245D1*
X68628Y79317D1*
X68773D1*
X68264Y79026D2*
X69139Y78079D1*
X67720Y79026D2*
X67573Y79100D1*
X67354Y79317D1*
Y77788D1*
X66009Y79317D2*
X66737D1*
X66809Y78662D1*
X66737Y78735D1*
X66518Y78809D1*
X66301D1*
X66082Y78735D1*
X65935Y78590D1*
X65863Y78371D1*
Y78226D1*
X65935Y78007D1*
X66082Y77860D1*
X66301Y77788D1*
X66518D1*
X66737Y77860D1*
X66809Y77934D1*
X66883Y78079D1*
X62745Y77788D2*
Y79319D1*
X63328Y77788D1*
X63911Y79319D1*
Y77788D1*
X62274Y79319D2*
X62202Y79247D1*
X62128Y79319D1*
X62202Y79393D1*
X62274Y79319D1*
X62202Y78809D2*
Y77788D1*
X60781Y78590D2*
X60928Y78736D1*
X61074Y78809D1*
X61292D1*
X61438Y78736D1*
X61583Y78590D1*
X61657Y78371D1*
Y78226D1*
X61583Y78007D1*
X61438Y77862D1*
X61292Y77788D1*
X61074D1*
X60928Y77862D1*
X60781Y78007D1*
X60310Y79319D2*
Y77788D1*
Y78517D2*
X60091Y78736D1*
X59945Y78809D1*
X59726D1*
X59581Y78736D1*
X59509Y78517D1*
Y77788D1*
X58164Y78809D2*
Y77788D1*
Y78590D2*
X58309Y78736D1*
X58455Y78809D1*
X58672D1*
X58819Y78736D1*
X58964Y78590D1*
X59038Y78371D1*
Y78226D1*
X58964Y78007D1*
X58819Y77862D1*
X58672Y77788D1*
X58455D1*
X58309Y77862D1*
X58164Y78007D1*
X57693Y78371D2*
X56819D1*
Y78517D1*
X56891Y78664D1*
X56964Y78736D1*
X57110Y78809D1*
X57329D1*
X57474Y78736D1*
X57621Y78590D1*
X57693Y78371D1*
Y78226D1*
X57621Y78007D1*
X57474Y77862D1*
X57329Y77788D1*
X57110D1*
X56964Y77862D1*
X56819Y78007D1*
X56348Y79319D2*
Y77788D1*
X53667Y79319D2*
Y78153D1*
X53739Y77934D1*
X53813Y77862D1*
X53958Y77788D1*
X54105D1*
X54250Y77862D1*
X54322Y77934D1*
X54396Y78153D1*
Y78298D1*
X52322Y78809D2*
Y77788D1*
Y78590D2*
X52467Y78736D1*
X52613Y78809D1*
X52831D1*
X52977Y78736D1*
X53122Y78590D1*
X53196Y78371D1*
Y78226D1*
X53122Y78007D1*
X52977Y77862D1*
X52831Y77788D1*
X52613D1*
X52467Y77862D1*
X52322Y78007D1*
X50975Y78590D2*
X51122Y78736D1*
X51268Y78809D1*
X51486D1*
X51632Y78736D1*
X51777Y78590D1*
X51851Y78371D1*
Y78226D1*
X51777Y78007D1*
X51632Y77862D1*
X51486Y77788D1*
X51268D1*
X51122Y77862D1*
X50975Y78007D1*
X50141Y78809D2*
X50286Y78736D1*
X50432Y78590D1*
X50505Y78371D1*
Y78226D1*
X50432Y78007D1*
X50286Y77862D1*
X50141Y77788D1*
X49922D1*
X49775Y77862D1*
X49630Y78007D1*
X49556Y78226D1*
Y78371D1*
X49630Y78590D1*
X49775Y78736D1*
X49922Y78809D1*
X50141D1*
X49086Y79319D2*
Y77788D1*
Y78590D2*
X48939Y78736D1*
X48794Y78809D1*
X48575D1*
X48430Y78736D1*
X48284Y78590D1*
X48211Y78371D1*
Y78226D1*
X48284Y78007D1*
X48430Y77862D1*
X48575Y77788D1*
X48794D1*
X48939Y77862D1*
X49086Y78007D1*
X46939Y78590D2*
X47011Y78736D1*
X47230Y78809D1*
X47449D1*
X47668Y78736D1*
X47741Y78590D1*
X47668Y78445D1*
X47522Y78371D1*
X47158Y78298D1*
X47011Y78226D1*
X46939Y78079D1*
Y78007D1*
X47011Y77862D1*
X47230Y77788D1*
X47449D1*
X47668Y77862D1*
X47741Y78007D1*
X46468Y78371D2*
X45594D1*
Y78517D1*
X45666Y78664D1*
X45739Y78736D1*
X45885Y78809D1*
X46104D1*
X46249Y78736D1*
X46396Y78590D1*
X46468Y78371D1*
Y78226D1*
X46396Y78007D1*
X46249Y77862D1*
X46104Y77788D1*
X45885D1*
X45739Y77862D1*
X45594Y78007D1*
X45123Y78809D2*
Y77788D1*
Y78517D2*
X44904Y78736D1*
X44758Y78809D1*
X44541D1*
X44394Y78736D1*
X44322Y78517D1*
Y77788D1*
X69811Y82519D2*
X70758D1*
Y80988D1*
X69811D1*
X70758Y81790D2*
X70175D1*
X68320Y82300D2*
X68465Y82447D1*
X68684Y82519D1*
X68975D1*
X69194Y82447D1*
X69341Y82300D1*
Y82155D1*
X69267Y82009D1*
X69194Y81936D1*
X69049Y81864D1*
X68611Y81717D1*
X68465Y81645D1*
X68392Y81571D1*
X68320Y81426D1*
Y81207D1*
X68465Y81062D1*
X68684Y80988D1*
X68975D1*
X69194Y81062D1*
X69341Y81207D1*
X67849Y81717D2*
X67192D1*
X66975Y81790D1*
X66901Y81864D1*
X66829Y82009D1*
Y82228D1*
X66901Y82373D1*
X66975Y82447D1*
X67192Y82519D1*
X67849D1*
Y80988D1*
X65994Y82517D2*
X66211Y82445D1*
X66285Y82300D1*
Y82154D1*
X66211Y82009D1*
X66066Y81935D1*
X65775Y81862D1*
X65556Y81790D1*
X65411Y81643D1*
X65339Y81498D1*
Y81279D1*
X65411Y81134D1*
X65484Y81060D1*
X65703Y80988D1*
X65994D1*
X66211Y81060D1*
X66285Y81134D1*
X66358Y81279D1*
Y81498D1*
X66285Y81643D1*
X66139Y81790D1*
X65922Y81862D1*
X65630Y81935D1*
X65484Y82009D1*
X65411Y82154D1*
Y82300D1*
X65484Y82445D1*
X65703Y82517D1*
X65994D1*
X64794Y82154D2*
Y82226D1*
X64722Y82373D1*
X64649Y82445D1*
X64503Y82517D1*
X64211D1*
X64066Y82445D1*
X63994Y82373D1*
X63920Y82226D1*
Y82081D1*
X63994Y81935D1*
X64139Y81717D1*
X64868Y80988D1*
X63847D1*
X62502Y82300D2*
X62575Y82445D1*
X62794Y82517D1*
X62939D1*
X63158Y82445D1*
X63304Y82226D1*
X63377Y81862D1*
Y81498D1*
X63304Y81207D1*
X63158Y81060D1*
X62939Y80988D1*
X62866D1*
X62649Y81060D1*
X62502Y81207D1*
X62430Y81426D1*
Y81498D1*
X62502Y81717D1*
X62649Y81862D1*
X62866Y81935D1*
X62939D1*
X63158Y81862D1*
X63304Y81717D1*
X63377Y81498D1*
X61085Y82300D2*
X61157Y82445D1*
X61376Y82517D1*
X61521D1*
X61740Y82445D1*
X61887Y82226D1*
X61959Y81862D1*
Y81498D1*
X61887Y81207D1*
X61740Y81060D1*
X61521Y80988D1*
X61449D1*
X61232Y81060D1*
X61085Y81207D1*
X61013Y81426D1*
Y81498D1*
X61085Y81717D1*
X61232Y81862D1*
X61449Y81935D1*
X61521D1*
X61740Y81862D1*
X61887Y81717D1*
X61959Y81498D1*
X58623Y82519D2*
X58769Y82447D1*
X58914Y82300D1*
X58988Y82155D1*
X59061Y81936D1*
Y81571D1*
X58988Y81353D1*
X58914Y81207D1*
X58769Y81062D1*
X58623Y80988D1*
X58331D1*
X58186Y81062D1*
X58040Y81207D1*
X57967Y81353D1*
X57895Y81571D1*
Y81936D1*
X57967Y82155D1*
X58040Y82300D1*
X58186Y82447D1*
X58331Y82519D1*
X58623D1*
X57424Y82009D2*
Y81279D1*
X57352Y81062D1*
X57205Y80988D1*
X56986D1*
X56841Y81062D1*
X56622Y81279D1*
Y82009D2*
Y80988D1*
X55933Y82519D2*
Y81279D1*
X55860Y81062D1*
X55714Y80988D1*
X55569D1*
X56152Y82009D2*
X55641D1*
X54224Y82519D2*
Y80988D1*
Y81790D2*
X54369Y81936D1*
X54515Y82009D1*
X54734D1*
X54879Y81936D1*
X55026Y81790D1*
X55098Y81571D1*
Y81426D1*
X55026Y81207D1*
X54879Y81062D1*
X54734Y80988D1*
X54515D1*
X54369Y81062D1*
X54224Y81207D1*
X53390Y82009D2*
X53534Y81936D1*
X53681Y81790D1*
X53753Y81571D1*
Y81426D1*
X53681Y81207D1*
X53534Y81062D1*
X53390Y80988D1*
X53171D1*
X53024Y81062D1*
X52879Y81207D1*
X52805Y81426D1*
Y81571D1*
X52879Y81790D1*
X53024Y81936D1*
X53171Y82009D1*
X53390D1*
X51971D2*
X52115Y81936D1*
X52262Y81790D1*
X52334Y81571D1*
Y81426D1*
X52262Y81207D1*
X52115Y81062D1*
X51971Y80988D1*
X51752D1*
X51605Y81062D1*
X51460Y81207D1*
X51386Y81426D1*
Y81571D1*
X51460Y81790D1*
X51605Y81936D1*
X51752Y82009D1*
X51971D1*
X50915D2*
Y80988D1*
Y81571D2*
X50841Y81790D1*
X50696Y81936D1*
X50550Y82009D1*
X50331D1*
X47358Y82300D2*
X47503Y82447D1*
X47722Y82519D1*
X48013D1*
X48232Y82447D1*
X48379Y82300D1*
Y82155D1*
X48305Y82009D1*
X48232Y81936D1*
X48087Y81864D1*
X47649Y81717D1*
X47503Y81645D1*
X47430Y81571D1*
X47358Y81426D1*
Y81207D1*
X47503Y81062D1*
X47722Y80988D1*
X48013D1*
X48232Y81062D1*
X48379Y81207D1*
X46524Y82009D2*
X46668Y81936D1*
X46815Y81790D1*
X46887Y81571D1*
Y81426D1*
X46815Y81207D1*
X46668Y81062D1*
X46524Y80988D1*
X46305D1*
X46158Y81062D1*
X46013Y81207D1*
X45939Y81426D1*
Y81571D1*
X46013Y81790D1*
X46158Y81936D1*
X46305Y82009D1*
X46524D1*
X44592Y81790D2*
X44739Y81936D1*
X44886Y82009D1*
X45103D1*
X45249Y81936D1*
X45394Y81790D1*
X45468Y81571D1*
Y81426D1*
X45394Y81207D1*
X45249Y81062D1*
X45103Y80988D1*
X44886D1*
X44739Y81062D1*
X44592Y81207D1*
X44122Y82519D2*
Y80988D1*
X43392Y82009D2*
X44122Y81279D1*
X43830Y81571D2*
X43320Y80988D1*
X42849Y81571D2*
X41975D1*
Y81717D1*
X42047Y81864D1*
X42120Y81936D1*
X42266Y82009D1*
X42485D1*
X42630Y81936D1*
X42777Y81790D1*
X42849Y81571D1*
Y81426D1*
X42777Y81207D1*
X42630Y81062D1*
X42485Y80988D1*
X42266D1*
X42120Y81062D1*
X41975Y81207D1*
X41285Y82519D2*
Y81279D1*
X41213Y81062D1*
X41066Y80988D1*
X40922D1*
X41504Y82009D2*
X40994D1*
X59038Y21004D2*
Y21076D1*
X58966Y21223D1*
X58894Y21295D1*
X58747Y21368D1*
X58456D1*
X58311Y21295D1*
X58238Y21223D1*
X58164Y21076D1*
Y20931D1*
X58238Y20785D1*
X58383Y20567D1*
X59113Y19838D1*
X58092D1*
X57183Y21368D2*
X57402Y21295D1*
X57549Y21076D1*
X57621Y20712D1*
Y20493D1*
X57549Y20129D1*
X57402Y19910D1*
X57183Y19838D1*
X57038D1*
X56819Y19910D1*
X56674Y20129D1*
X56600Y20493D1*
Y20712D1*
X56674Y21076D1*
X56819Y21295D1*
X57038Y21368D1*
X57183D1*
X56674Y21076D2*
X57549Y20129D1*
X56130Y21076D2*
X55983Y21150D1*
X55764Y21368D1*
Y19838D1*
X54419Y21368D2*
X55147D1*
X55219Y20712D1*
X55147Y20785D1*
X54928Y20859D1*
X54711D1*
X54492Y20785D1*
X54345Y20640D1*
X54273Y20421D1*
Y20276D1*
X54345Y20057D1*
X54492Y19910D1*
X54711Y19838D1*
X54928D1*
X55147Y19910D1*
X55219Y19985D1*
X55293Y20129D1*
X51155Y19838D2*
Y21369D1*
X51738Y19838D1*
X52321Y21369D1*
Y19838D1*
X50684Y21369D2*
X50612Y21297D1*
X50538Y21369D1*
X50612Y21443D1*
X50684Y21369D1*
X50612Y20859D2*
Y19838D1*
X49191Y20640D2*
X49338Y20786D1*
X49484Y20859D1*
X49702D1*
X49848Y20786D1*
X49993Y20640D1*
X50067Y20421D1*
Y20276D1*
X49993Y20057D1*
X49848Y19912D1*
X49702Y19838D1*
X49484D1*
X49338Y19912D1*
X49191Y20057D1*
X48721Y21369D2*
Y19838D1*
Y20567D2*
X48502Y20786D1*
X48355Y20859D1*
X48136D1*
X47991Y20786D1*
X47919Y20567D1*
Y19838D1*
X46574Y20859D2*
Y19838D1*
Y20640D2*
X46719Y20786D1*
X46865Y20859D1*
X47082D1*
X47229Y20786D1*
X47374Y20640D1*
X47448Y20421D1*
Y20276D1*
X47374Y20057D1*
X47229Y19912D1*
X47082Y19838D1*
X46865D1*
X46719Y19912D1*
X46574Y20057D1*
X46103Y20421D2*
X45229D1*
Y20567D1*
X45301Y20714D1*
X45374Y20786D1*
X45520Y20859D1*
X45739D1*
X45884Y20786D1*
X46031Y20640D1*
X46103Y20421D1*
Y20276D1*
X46031Y20057D1*
X45884Y19912D1*
X45739Y19838D1*
X45520D1*
X45374Y19912D1*
X45229Y20057D1*
X44758Y21369D2*
Y19838D1*
X42077Y21369D2*
Y20204D1*
X42149Y19985D1*
X42223Y19912D1*
X42368Y19838D1*
X42515D1*
X42660Y19912D1*
X42732Y19985D1*
X42806Y20204D1*
Y20348D1*
X40732Y20859D2*
Y19838D1*
Y20640D2*
X40877Y20786D1*
X41023Y20859D1*
X41241D1*
X41387Y20786D1*
X41532Y20640D1*
X41606Y20421D1*
Y20276D1*
X41532Y20057D1*
X41387Y19912D1*
X41241Y19838D1*
X41023D1*
X40877Y19912D1*
X40732Y20057D1*
X39385Y20640D2*
X39532Y20786D1*
X39679Y20859D1*
X39896D1*
X40042Y20786D1*
X40187Y20640D1*
X40261Y20421D1*
Y20276D1*
X40187Y20057D1*
X40042Y19912D1*
X39896Y19838D1*
X39679D1*
X39532Y19912D1*
X39385Y20057D1*
X38551Y20859D2*
X38696Y20786D1*
X38842Y20640D1*
X38915Y20421D1*
Y20276D1*
X38842Y20057D1*
X38696Y19912D1*
X38551Y19838D1*
X38332D1*
X38185Y19912D1*
X38040Y20057D1*
X37966Y20276D1*
Y20421D1*
X38040Y20640D1*
X38185Y20786D1*
X38332Y20859D1*
X38551D1*
X37496Y21369D2*
Y19838D1*
Y20640D2*
X37349Y20786D1*
X37204Y20859D1*
X36985D1*
X36840Y20786D1*
X36694Y20640D1*
X36621Y20421D1*
Y20276D1*
X36694Y20057D1*
X36840Y19912D1*
X36985Y19838D1*
X37204D1*
X37349Y19912D1*
X37496Y20057D1*
X35349Y20640D2*
X35421Y20786D1*
X35640Y20859D1*
X35859D1*
X36078Y20786D1*
X36151Y20640D1*
X36078Y20495D1*
X35932Y20421D1*
X35568Y20348D1*
X35421Y20276D1*
X35349Y20129D1*
Y20057D1*
X35421Y19912D1*
X35640Y19838D1*
X35859D1*
X36078Y19912D1*
X36151Y20057D1*
X34878Y20421D2*
X34004D1*
Y20567D1*
X34077Y20714D1*
X34149Y20786D1*
X34296Y20859D1*
X34515D1*
X34659Y20786D1*
X34806Y20640D1*
X34878Y20421D1*
Y20276D1*
X34806Y20057D1*
X34659Y19912D1*
X34515Y19838D1*
X34296D1*
X34149Y19912D1*
X34004Y20057D1*
X33533Y20859D2*
Y19838D1*
Y20567D2*
X33314Y20786D1*
X33168Y20859D1*
X32951D1*
X32804Y20786D1*
X32732Y20567D1*
Y19838D1*
X58161Y24569D2*
X59108D1*
Y23038D1*
X58161D1*
X59108Y23840D2*
X58525D1*
X56670Y24350D2*
X56815Y24497D1*
X57034Y24569D1*
X57325D1*
X57544Y24497D1*
X57691Y24350D1*
Y24205D1*
X57617Y24059D1*
X57544Y23986D1*
X57399Y23914D1*
X56961Y23767D1*
X56815Y23695D1*
X56742Y23621D1*
X56670Y23476D1*
Y23257D1*
X56815Y23112D1*
X57034Y23038D1*
X57325D1*
X57544Y23112D1*
X57691Y23257D1*
X56199Y23767D2*
X55542D1*
X55325Y23840D1*
X55251Y23914D1*
X55178Y24059D1*
Y24278D1*
X55251Y24423D1*
X55325Y24497D1*
X55542Y24569D1*
X56199D1*
Y23038D1*
X54344Y24568D2*
X54561Y24495D1*
X54635Y24350D1*
Y24204D1*
X54561Y24059D1*
X54416Y23985D1*
X54125Y23912D1*
X53906Y23840D1*
X53761Y23693D1*
X53689Y23548D1*
Y23329D1*
X53761Y23185D1*
X53833Y23110D1*
X54052Y23038D1*
X54344D1*
X54561Y23110D1*
X54635Y23185D1*
X54708Y23329D1*
Y23548D1*
X54635Y23693D1*
X54489Y23840D1*
X54271Y23912D1*
X53980Y23985D1*
X53833Y24059D1*
X53761Y24204D1*
Y24350D1*
X53833Y24495D1*
X54052Y24568D1*
X54344D1*
X53144Y24204D2*
Y24276D1*
X53071Y24423D1*
X52999Y24495D1*
X52852Y24568D1*
X52561D1*
X52416Y24495D1*
X52344Y24423D1*
X52269Y24276D1*
Y24131D1*
X52344Y23985D1*
X52488Y23767D1*
X53218Y23038D1*
X52197D1*
X50852Y24350D2*
X50925Y24495D1*
X51144Y24568D1*
X51288D1*
X51507Y24495D1*
X51654Y24276D1*
X51726Y23912D1*
Y23548D1*
X51654Y23257D1*
X51507Y23110D1*
X51288Y23038D1*
X51216D1*
X50999Y23110D1*
X50852Y23257D1*
X50780Y23476D1*
Y23548D1*
X50852Y23767D1*
X50999Y23912D1*
X51216Y23985D1*
X51288D1*
X51507Y23912D1*
X51654Y23767D1*
X51726Y23548D1*
X49435Y24350D2*
X49507Y24495D1*
X49726Y24568D1*
X49871D1*
X50090Y24495D1*
X50237Y24276D1*
X50309Y23912D1*
Y23548D1*
X50237Y23257D1*
X50090Y23110D1*
X49871Y23038D1*
X49799D1*
X49581Y23110D1*
X49435Y23257D1*
X49362Y23476D1*
Y23548D1*
X49435Y23767D1*
X49581Y23912D1*
X49799Y23985D1*
X49871D1*
X50090Y23912D1*
X50237Y23767D1*
X50309Y23548D1*
X47410Y23767D2*
X46753D1*
X46536Y23840D1*
X46462Y23914D1*
X46390Y24059D1*
Y24278D1*
X46462Y24423D1*
X46536Y24497D1*
X46753Y24569D1*
X47410D1*
Y23038D1*
X45919Y24059D2*
Y23038D1*
Y23621D2*
X45845Y23840D1*
X45700Y23986D1*
X45553Y24059D1*
X45334D1*
X44500D2*
X44645Y23986D1*
X44791Y23840D1*
X44864Y23621D1*
Y23476D1*
X44791Y23257D1*
X44645Y23112D1*
X44500Y23038D1*
X44281D1*
X44134Y23112D1*
X43990Y23257D1*
X43915Y23476D1*
Y23621D1*
X43990Y23840D1*
X44134Y23986D1*
X44281Y24059D1*
X44500D1*
X42570Y23986D2*
Y22819D1*
X42643Y22602D1*
X42715Y22528D1*
X42862Y22455D1*
X43081D1*
X43226Y22528D1*
X42570Y23767D2*
X42715Y23912D1*
X42862Y23986D1*
X43081D1*
X43226Y23912D1*
X43372Y23767D1*
X43445Y23548D1*
Y23402D1*
X43372Y23185D1*
X43226Y23038D1*
X43081Y22966D1*
X42862D1*
X42715Y23038D1*
X42570Y23185D1*
X42100Y24059D2*
Y23038D1*
Y23621D2*
X42026Y23840D1*
X41881Y23986D1*
X41734Y24059D1*
X41515D1*
X40170D2*
Y23038D1*
Y23840D2*
X40315Y23986D1*
X40462Y24059D1*
X40679D1*
X40826Y23986D1*
X40971Y23840D1*
X41045Y23621D1*
Y23476D1*
X40971Y23257D1*
X40826Y23112D1*
X40679Y23038D1*
X40462D1*
X40315Y23112D1*
X40170Y23257D1*
X39700Y24059D2*
Y23038D1*
Y23767D2*
X39481Y23986D1*
X39334Y24059D1*
X39117D1*
X38970Y23986D1*
X38898Y23767D1*
Y23038D1*
Y23767D2*
X38679Y23986D1*
X38532Y24059D1*
X38315D1*
X38169Y23986D1*
X38094Y23767D1*
Y23038D1*
X37624Y24059D2*
Y23038D1*
Y23767D2*
X37405Y23986D1*
X37258Y24059D1*
X37041D1*
X36894Y23986D1*
X36822Y23767D1*
Y23038D1*
Y23767D2*
X36603Y23986D1*
X36456Y24059D1*
X36239D1*
X36092Y23986D1*
X36018Y23767D1*
Y23038D1*
X35548Y23621D2*
X34673D1*
Y23767D1*
X34746Y23914D1*
X34818Y23986D1*
X34965Y24059D1*
X35184D1*
X35329Y23986D1*
X35475Y23840D1*
X35548Y23621D1*
Y23476D1*
X35475Y23257D1*
X35329Y23112D1*
X35184Y23038D1*
X34965D1*
X34818Y23112D1*
X34673Y23257D1*
X34203Y24059D2*
Y23038D1*
Y23621D2*
X34129Y23840D1*
X33984Y23986D1*
X33837Y24059D1*
X33618D1*
X94507Y23990D2*
X93851D1*
X93632Y24064D1*
X93558Y24136D1*
X93486Y24281D1*
Y24428D1*
X93558Y24573D1*
X93632Y24647D1*
X93851Y24719D1*
X94507D1*
Y23188D1*
X93996Y23990D2*
X93486Y23188D1*
X92505Y24719D2*
Y23188D1*
X93015Y24719D2*
X91994D1*
X90503Y24500D2*
X90648Y24647D1*
X90867Y24719D1*
X91158D1*
X91377Y24647D1*
X91524Y24500D1*
Y24355D1*
X91450Y24209D1*
X91377Y24136D1*
X91232Y24064D1*
X90794Y23917D1*
X90648Y23845D1*
X90575Y23771D1*
X90503Y23626D1*
Y23407D1*
X90648Y23262D1*
X90867Y23188D1*
X91158D1*
X91377Y23262D1*
X91524Y23407D1*
X88551Y23953D2*
X87709D1*
X87238Y24609D2*
X86072Y23952D1*
X87238Y23297D1*
X84120Y23917D2*
X83463D1*
X83246Y23990D1*
X83172Y24064D1*
X83100Y24209D1*
Y24428D1*
X83172Y24573D1*
X83246Y24647D1*
X83463Y24719D1*
X84120D1*
Y23188D1*
X82629Y24209D2*
X82338Y23188D1*
X82046Y24209D1*
X81755Y23188D1*
X81463Y24209D1*
X80993D2*
Y23188D1*
Y23771D2*
X80918Y23990D1*
X80774Y24136D1*
X80627Y24209D1*
X80408D1*
X79865Y23334D2*
X79937Y23260D1*
X79865Y23188D1*
X79791Y23260D1*
X79865Y23334D1*
X76746Y24355D2*
X76818Y24500D1*
X76965Y24647D1*
X77110Y24719D1*
X77401D1*
X77548Y24647D1*
X77692Y24500D1*
X77767Y24355D1*
X77839Y24136D1*
Y23771D1*
X77767Y23553D1*
X77692Y23407D1*
X77548Y23262D1*
X77401Y23188D1*
X77110D1*
X76965Y23262D1*
X76818Y23407D1*
X76746Y23553D1*
X76056Y24719D2*
Y23479D1*
X75984Y23262D1*
X75837Y23188D1*
X75692D1*
X76275Y24209D2*
X75765D1*
X75222Y24719D2*
Y23188D1*
X94491Y22319D2*
Y20788D1*
X93981D1*
X93762Y20862D1*
X93615Y21007D1*
X93543Y21153D1*
X93470Y21371D1*
Y21736D1*
X93543Y21955D1*
X93615Y22100D1*
X93762Y22247D1*
X93981Y22319D1*
X94491D1*
X92489D2*
Y20788D1*
X93000Y22319D2*
X91979D1*
X91508Y21590D2*
X90853D1*
X90634Y21664D1*
X90560Y21736D1*
X90487Y21881D1*
Y22028D1*
X90560Y22173D1*
X90634Y22247D1*
X90853Y22319D1*
X91508D1*
Y20788D1*
X90998Y21590D2*
X90487Y20788D1*
X88535Y21553D2*
X87693D1*
X87222Y22209D2*
X86057Y21552D1*
X87222Y20897D1*
X83011Y21955D2*
X83084Y22100D1*
X83230Y22247D1*
X83375Y22319D1*
X83667D1*
X83813Y22247D1*
X83958Y22100D1*
X84032Y21955D1*
X84105Y21736D1*
Y21371D1*
X84032Y21153D1*
X83958Y21007D1*
X83813Y20862D1*
X83667Y20788D1*
X83375D1*
X83230Y20862D1*
X83084Y21007D1*
X83011Y21153D1*
Y21371D1*
X83375D1*
X82541Y21517D2*
X81884D1*
X81667Y21590D1*
X81592Y21664D1*
X81520Y21809D1*
Y22028D1*
X81592Y22173D1*
X81667Y22247D1*
X81884Y22319D1*
X82541D1*
Y20788D1*
X81049Y22319D2*
Y20788D1*
X80141Y22319D2*
X80287Y22247D1*
X80432Y22100D1*
X80506Y21955D1*
X80579Y21736D1*
Y21371D1*
X80506Y21153D1*
X80432Y21007D1*
X80287Y20862D1*
X80141Y20788D1*
X79849D1*
X79704Y20862D1*
X79558Y21007D1*
X79485Y21153D1*
X79413Y21371D1*
Y21736D1*
X79485Y21955D1*
X79558Y22100D1*
X79704Y22247D1*
X79849Y22319D1*
X80141D1*
X78504Y22317D2*
X78723Y22245D1*
X78870Y22026D1*
X78942Y21662D1*
Y21443D1*
X78870Y21079D1*
X78723Y20860D1*
X78504Y20788D1*
X78360D1*
X78141Y20860D1*
X77996Y21079D1*
X77922Y21443D1*
Y21662D1*
X77996Y22026D1*
X78141Y22245D1*
X78360Y22317D1*
X78504D1*
X77996Y22026D2*
X78870Y21079D1*
X89123Y14219D2*
X89270Y14147D1*
X89415Y14000D1*
X89489Y13855D1*
X89561Y13636D1*
Y13271D1*
X89489Y13053D1*
X89415Y12907D1*
X89270Y12762D1*
X89123Y12688D1*
X88832D1*
X88687Y12762D1*
X88540Y12907D1*
X88468Y13053D1*
X88396Y13271D1*
Y13636D1*
X88468Y13855D1*
X88540Y14000D1*
X88687Y14147D1*
X88832Y14219D1*
X89123D1*
X87925Y13709D2*
Y12177D1*
Y13490D2*
X87778Y13635D1*
X87634Y13709D1*
X87415D1*
X87268Y13635D1*
X87123Y13490D1*
X87049Y13271D1*
Y13124D1*
X87123Y12907D1*
X87268Y12760D1*
X87415Y12688D1*
X87634D1*
X87778Y12760D1*
X87925Y12907D1*
X86578Y13271D2*
X85704D1*
Y13417D1*
X85777Y13564D1*
X85849Y13636D1*
X85996Y13709D1*
X86215D1*
X86359Y13636D1*
X86506Y13490D1*
X86578Y13271D1*
Y13126D1*
X86506Y12907D1*
X86359Y12762D1*
X86215Y12688D1*
X85996D1*
X85849Y12762D1*
X85704Y12907D1*
X85233Y13709D2*
Y12688D1*
Y13417D2*
X85014Y13636D1*
X84868Y13709D1*
X84651D1*
X84504Y13636D1*
X84432Y13417D1*
Y12688D1*
X81459Y14000D2*
X81604Y14147D1*
X81823Y14219D1*
X82114D1*
X82333Y14147D1*
X82480Y14000D1*
Y13855D1*
X82406Y13709D1*
X82333Y13636D1*
X82188Y13564D1*
X81750Y13417D1*
X81604Y13345D1*
X81531Y13271D1*
X81459Y13126D1*
Y12907D1*
X81604Y12762D1*
X81823Y12688D1*
X82114D1*
X82333Y12762D1*
X82480Y12907D1*
X80624Y13709D2*
X80769Y13636D1*
X80916Y13490D1*
X80988Y13271D1*
Y13126D1*
X80916Y12907D1*
X80769Y12762D1*
X80624Y12688D1*
X80405D1*
X80259Y12762D1*
X80114Y12907D1*
X80040Y13126D1*
Y13271D1*
X80114Y13490D1*
X80259Y13636D1*
X80405Y13709D1*
X80624D1*
X79569D2*
Y12979D1*
X79497Y12762D1*
X79350Y12688D1*
X79131D1*
X78986Y12762D1*
X78767Y12979D1*
Y13709D2*
Y12688D1*
X78297Y13709D2*
Y12688D1*
Y13271D2*
X78223Y13490D1*
X78078Y13636D1*
X77931Y13709D1*
X77712D1*
X76366Y13490D2*
X76512Y13636D1*
X76659Y13709D1*
X76876D1*
X77023Y13636D1*
X77167Y13490D1*
X77242Y13271D1*
Y13126D1*
X77167Y12907D1*
X77023Y12762D1*
X76876Y12688D1*
X76659D1*
X76512Y12762D1*
X76366Y12907D1*
X75895Y13271D2*
X75021D1*
Y13417D1*
X75093Y13564D1*
X75166Y13636D1*
X75312Y13709D1*
X75531D1*
X75676Y13636D1*
X75823Y13490D1*
X75895Y13271D1*
Y13126D1*
X75823Y12907D1*
X75676Y12762D1*
X75531Y12688D1*
X75312D1*
X75166Y12762D1*
X75021Y12907D1*
X73069Y14219D2*
Y12688D1*
X72048Y14219D2*
Y12688D1*
X73069Y13490D2*
X72048D1*
X70703Y13709D2*
Y12688D1*
Y13490D2*
X70848Y13636D1*
X70994Y13709D1*
X71212D1*
X71358Y13636D1*
X71503Y13490D1*
X71577Y13271D1*
Y13126D1*
X71503Y12907D1*
X71358Y12762D1*
X71212Y12688D1*
X70994D1*
X70848Y12762D1*
X70703Y12907D1*
X70232Y13709D2*
Y12688D1*
Y13271D2*
X70158Y13490D1*
X70013Y13636D1*
X69867Y13709D1*
X69648D1*
X68303Y14219D2*
Y12688D1*
Y13490D2*
X68448Y13636D1*
X68594Y13709D1*
X68813D1*
X68958Y13636D1*
X69105Y13490D1*
X69177Y13271D1*
Y13126D1*
X69105Y12907D1*
X68958Y12762D1*
X68813Y12688D1*
X68594D1*
X68448Y12762D1*
X68303Y12907D1*
X67832Y13709D2*
X67541Y12688D1*
X67249Y13709D1*
X66958Y12688D1*
X66667Y13709D1*
X65322D2*
Y12688D1*
Y13490D2*
X65467Y13636D1*
X65613Y13709D1*
X65830D1*
X65977Y13636D1*
X66122Y13490D1*
X66196Y13271D1*
Y13126D1*
X66122Y12907D1*
X65977Y12762D1*
X65830Y12688D1*
X65613D1*
X65467Y12762D1*
X65322Y12907D1*
X64851Y13709D2*
Y12688D1*
Y13271D2*
X64777Y13490D1*
X64632Y13636D1*
X64485Y13709D1*
X64266D1*
X63796Y13271D2*
X62922D1*
Y13417D1*
X62994Y13564D1*
X63066Y13636D1*
X63213Y13709D1*
X63432D1*
X63577Y13636D1*
X63723Y13490D1*
X63796Y13271D1*
Y13126D1*
X63723Y12907D1*
X63577Y12762D1*
X63432Y12688D1*
X63213D1*
X63066Y12762D1*
X62922Y12907D1*
X99623Y52519D2*
X99770Y52447D1*
X99915Y52300D1*
X99989Y52155D1*
X100061Y51936D1*
Y51571D1*
X99989Y51353D1*
X99915Y51207D1*
X99770Y51062D1*
X99623Y50988D1*
X99332D1*
X99187Y51062D1*
X99040Y51207D1*
X98968Y51353D1*
X98896Y51571D1*
Y51936D1*
X98968Y52155D1*
X99040Y52300D1*
X99187Y52447D1*
X99332Y52519D1*
X99623D1*
X98425Y52009D2*
Y50477D1*
Y51790D2*
X98278Y51935D1*
X98134Y52009D1*
X97915D1*
X97768Y51935D1*
X97623Y51790D1*
X97549Y51571D1*
Y51424D1*
X97623Y51207D1*
X97768Y51060D1*
X97915Y50988D1*
X98134D1*
X98278Y51060D1*
X98425Y51207D1*
X97078Y51571D2*
X96204D1*
Y51717D1*
X96277Y51864D1*
X96349Y51936D1*
X96496Y52009D1*
X96715D1*
X96859Y51936D1*
X97006Y51790D1*
X97078Y51571D1*
Y51426D1*
X97006Y51207D1*
X96859Y51062D1*
X96715Y50988D1*
X96496D1*
X96349Y51062D1*
X96204Y51207D1*
X95733Y52009D2*
Y50988D1*
Y51717D2*
X95514Y51936D1*
X95368Y52009D1*
X95151D1*
X95004Y51936D1*
X94932Y51717D1*
Y50988D1*
X91959Y52300D2*
X92104Y52447D1*
X92323Y52519D1*
X92614D1*
X92833Y52447D1*
X92980Y52300D1*
Y52155D1*
X92906Y52009D1*
X92833Y51936D1*
X92688Y51864D1*
X92250Y51717D1*
X92104Y51645D1*
X92031Y51571D1*
X91959Y51426D1*
Y51207D1*
X92104Y51062D1*
X92323Y50988D1*
X92614D1*
X92833Y51062D1*
X92980Y51207D1*
X91124Y52009D2*
X91269Y51936D1*
X91416Y51790D1*
X91488Y51571D1*
Y51426D1*
X91416Y51207D1*
X91269Y51062D1*
X91124Y50988D1*
X90905D1*
X90759Y51062D1*
X90614Y51207D1*
X90540Y51426D1*
Y51571D1*
X90614Y51790D1*
X90759Y51936D1*
X90905Y52009D1*
X91124D1*
X90069D2*
Y51279D1*
X89997Y51062D1*
X89850Y50988D1*
X89631D1*
X89486Y51062D1*
X89267Y51279D1*
Y52009D2*
Y50988D1*
X88797Y52009D2*
Y50988D1*
Y51571D2*
X88723Y51790D1*
X88578Y51936D1*
X88431Y52009D1*
X88212D1*
X86866Y51790D2*
X87012Y51936D1*
X87159Y52009D1*
X87376D1*
X87523Y51936D1*
X87667Y51790D1*
X87742Y51571D1*
Y51426D1*
X87667Y51207D1*
X87523Y51062D1*
X87376Y50988D1*
X87159D1*
X87012Y51062D1*
X86866Y51207D1*
X86395Y51571D2*
X85521D1*
Y51717D1*
X85593Y51864D1*
X85666Y51936D1*
X85812Y52009D1*
X86031D1*
X86176Y51936D1*
X86323Y51790D1*
X86395Y51571D1*
Y51426D1*
X86323Y51207D1*
X86176Y51062D1*
X86031Y50988D1*
X85812D1*
X85666Y51062D1*
X85521Y51207D1*
X83569Y52519D2*
Y50988D1*
X82548Y52519D2*
Y50988D1*
X83569Y51790D2*
X82548D1*
X81203Y52009D2*
Y50988D1*
Y51790D2*
X81348Y51936D1*
X81494Y52009D1*
X81712D1*
X81858Y51936D1*
X82003Y51790D1*
X82077Y51571D1*
Y51426D1*
X82003Y51207D1*
X81858Y51062D1*
X81712Y50988D1*
X81494D1*
X81348Y51062D1*
X81203Y51207D1*
X80732Y52009D2*
Y50988D1*
Y51571D2*
X80658Y51790D1*
X80513Y51936D1*
X80367Y52009D1*
X80148D1*
X78803Y52519D2*
Y50988D1*
Y51790D2*
X78948Y51936D1*
X79094Y52009D1*
X79313D1*
X79458Y51936D1*
X79605Y51790D1*
X79677Y51571D1*
Y51426D1*
X79605Y51207D1*
X79458Y51062D1*
X79313Y50988D1*
X79094D1*
X78948Y51062D1*
X78803Y51207D1*
X78332Y52009D2*
X78041Y50988D1*
X77749Y52009D1*
X77458Y50988D1*
X77167Y52009D1*
X75822D2*
Y50988D1*
Y51790D2*
X75967Y51936D1*
X76113Y52009D1*
X76330D1*
X76477Y51936D1*
X76622Y51790D1*
X76696Y51571D1*
Y51426D1*
X76622Y51207D1*
X76477Y51062D1*
X76330Y50988D1*
X76113D1*
X75967Y51062D1*
X75822Y51207D1*
X75351Y52009D2*
Y50988D1*
Y51571D2*
X75277Y51790D1*
X75132Y51936D1*
X74985Y52009D1*
X74766D1*
X74296Y51571D2*
X73422D1*
Y51717D1*
X73494Y51864D1*
X73566Y51936D1*
X73713Y52009D1*
X73932D1*
X74077Y51936D1*
X74223Y51790D1*
X74296Y51571D1*
Y51426D1*
X74223Y51207D1*
X74077Y51062D1*
X73932Y50988D1*
X73713D1*
X73566Y51062D1*
X73422Y51207D1*
M02*
