M48
METRIC,0000.00
T01C0.486
T02C0.6
T03C0.7
T04C0.9
T05C1.0
T06C1.1
T07C1.168
T08C1.168
T09C1.5
T10C3.0
%
T01
X+001964Y+001142
X+002107Y+001364
X+002345Y+001253
X+002980Y+001348
X+003377Y+001364
X+003580Y+001354
X+004170Y+001364
X+004377Y+001348
X+005648Y+001888
X+005505Y+002571
X+005330Y+002761
X+005441Y+003095
X+006013Y+003111
X+006013Y+002857
X+006918Y+002666
X+006918Y+002539
X+007077Y+002984
X+007632Y+002984
X+007870Y+002539
X+007870Y+002412
X+009029Y+002444
X+009029Y+001841
X+008855Y+001729
X+008700Y+003764
X+008500Y+003764
X+008300Y+003764
X+008100Y+003764
X+007900Y+003764
X+007420Y+003724
X+006940Y+004684
X+006940Y+004824
X+006600Y+004604
X+006460Y+004704
X+006500Y+005184
X+005860Y+005464
X+005740Y+005464
X+005600Y+005564
X+005360Y+005544
X+004620Y+005664
X+004620Y+006004
X+005420Y+007044
X+005840Y+007044
X+006740Y+006164
X+006900Y+006104
X+007000Y+006024
X+007240Y+006284
X+007240Y+006504
X+007680Y+006584
X+008000Y+006964
X+008480Y+006964
X+008700Y+006524
X+008980Y+006524
X+009200Y+006404
X+009140Y+006164
X+009280Y+006664
X+009620Y+006664
X+009320Y+007264
X+009440Y+007464
X+009426Y+007651
X+009855Y+007826
X+009966Y+008128
X+009860Y+005904
X+009660Y+005904
X+009100Y+005504
X+008700Y+005504
X+008500Y+005504
X+008020Y+006164
X+008260Y+006424
X+007520Y+005764
X+007380Y+005764
X+007520Y+005484
X+007380Y+005424
X+005340Y+004584
X+005340Y+004304
X+005500Y+004244
X+002620Y+002844
X+002110Y+002824
X+001710Y+002444
X+001600Y+006984
X+001480Y+007384
X+001600Y+007524
X+001280Y+007684
X+001280Y+008224
X+002400Y+007744
X+002400Y+007204
X+003160Y+007424
X+003520Y+007524
X+003600Y+007744
X+003600Y+007884
X+003900Y+007884
X+003900Y+007744
X+003400Y+006844
X+003140Y+006844
X+005980Y+008564
X+006160Y+008564
X+009100Y+003764
X+009300Y+003764
T02
X+003380Y+002944
X+003580Y+002944
X+003780Y+002944
X+003980Y+002944
X+004180Y+002944
X+004380Y+002944
X+003180Y+002944
X+002980Y+002944
X+002980Y+001514
X+003180Y+001514
X+003380Y+001514
X+003580Y+001514
X+003780Y+001514
X+003980Y+001514
X+004180Y+001514
X+004380Y+001514
T03
X+006360Y+005784
X+006487Y+005784
X+006614Y+005784
X+006741Y+005784
X+007000Y+005784
X+007127Y+005784
T04
X+002901Y+009429
X+002393Y+009429
X+001631Y+009424
X+001377Y+009429
X+003760Y+009578
X+003760Y+008984
X+007140Y+008964
X+007140Y+009558
X+007886Y+009779
X+008394Y+009779
X+009156Y+009784
X+009410Y+009779
X+007290Y+004804
X+007290Y+004304
X+003520Y+004804
X+003520Y+005309
T05
X+004800Y+009264
X+005300Y+009264
X+005981Y+009271
X+006481Y+009271
X+001313Y+004762
X+001186Y+004762
X+001186Y+003365
X+001313Y+003365
T06
X+002345Y+001825
X+002091Y+001825
X+002091Y+002079
X+002345Y+002079
X+002345Y+002333
X+002091Y+002333
X+002091Y+002587
X+002345Y+002587
T07
X+003202Y+008522
X+007998Y+008522
T08
X+004280Y+007444
X+006920Y+007444
T09
X+002346Y+008937
X+002846Y+008937
X+003346Y+008937
X+007854Y+008937
X+008354Y+008937
X+008854Y+008937
T10
X+009379Y+002968
X+009379Y+001396
X+007950Y+007509
X+002028Y+006588
X+001758Y+002968
X+001758Y+001396
T00
M30
