G04 DipTrace 2.4.0.2*
%INTop.gtl*%
%MOMM*%
%ADD14C,0.33*%
%ADD19R,1.3X2.0*%
%ADD20R,2.5X2.5*%
%ADD21C,2.5*%
%ADD22C,1.5*%
%ADD23C,3.0*%
%ADD25R,1.05X0.65*%
%ADD27R,1.4X0.6*%
%ADD28R,1.5X1.3*%
%ADD29R,0.8X1.6*%
%ADD31R,2.85X1.4*%
%ADD32C,1.778*%
%ADD33C,1.778*%
%ADD34R,1.6X1.8*%
%ADD35R,1.0X1.3*%
%ADD36O,1.0X1.3*%
%ADD37R,1.3X1.5*%
%ADD38R,2.0X0.8*%
%ADD40R,1.35X0.4*%
%ADD41R,1.6X2.1*%
%ADD42R,1.9X1.9*%
%ADD43R,2.15X0.95*%
%ADD44R,2.15X3.25*%
%ADD45R,1.4X2.85*%
%ADD46R,1.1X1.0*%
%ADD47R,2.0X5.5*%
%ADD48R,1.0X1.1*%
%ADD49R,1.6X0.8*%
%ADD50R,1.7X1.7*%
%ADD51C,1.7*%
%ADD52C,1.016*%
%FSLAX53Y53*%
G04*
G71*
G90*
G75*
G01*
%LNTop*%
%LPD*%
X54200Y70440D2*
D14*
Y71640D1*
X53600Y72240D1*
X46200Y59440D2*
Y60040D1*
X72900Y43040D2*
Y43140D1*
X70400Y45640D1*
Y49040D1*
X68600Y50840D1*
X46000D1*
X44000Y52840D1*
Y59240D1*
X44800Y60040D1*
X46200D1*
X84400Y65940D2*
X80800D1*
X77500D1*
X77150D1*
X76100Y64890D1*
X80800Y65940D2*
Y69040D1*
X82800Y71040D1*
X96000Y76540D2*
X94259D1*
X83900D1*
X82800Y75440D1*
Y71040D1*
X96000Y76540D2*
X99600D1*
Y66540D2*
X100300D1*
X101000Y65840D1*
Y62240D1*
X100400Y61640D1*
X100300D1*
X99600Y60940D1*
Y76540D2*
X100300D1*
X101000Y75840D1*
Y73040D1*
X100000Y72040D1*
X98800D1*
X98000Y71240D1*
Y68040D1*
X99000Y67040D1*
X99100D1*
X99600Y66540D1*
X76800Y65840D2*
X77500D1*
Y65940D1*
X94259Y76514D2*
Y76540D1*
X74576Y29837D2*
X74860D1*
X76765Y27932D1*
X80291D1*
X83467Y24756D1*
X86960Y17213D2*
X88466D1*
X88547Y17294D1*
X74576Y29837D2*
X76322D1*
X58540Y29519D2*
Y25709D1*
Y21899D2*
Y19993D1*
X58858Y19676D1*
Y16426D1*
X58776Y16344D1*
X70765Y29837D2*
X58858D1*
X58540Y29519D1*
Y25709D2*
Y21899D1*
X72900Y48040D2*
Y46140D1*
X74293Y44747D1*
X75800Y43240D1*
Y39640D1*
X76800Y38640D1*
X79000D1*
X72900Y48040D2*
Y56210D1*
X71270Y57840D1*
X48500Y58490D2*
X52550D1*
X53600Y57440D1*
X58400Y70440D2*
Y72236D1*
X58404Y72240D1*
X67400Y61640D2*
Y62040D1*
X70200D1*
X71200Y61040D1*
Y57910D1*
X71270Y57840D1*
X53600Y57440D2*
Y59640D1*
X54800Y60840D1*
X66600D1*
X67400Y61640D1*
X70800Y63840D2*
Y62640D1*
X70200Y62040D1*
X79000Y37640D2*
Y38640D1*
X84800Y69640D2*
Y70940D1*
X84700Y71040D1*
X80000Y69640D2*
X79000Y68640D1*
Y67840D1*
X78200Y67040D1*
X69800D1*
X69000Y66240D1*
Y64840D1*
X69600Y64240D1*
X70400D1*
X70800Y63840D1*
X53600Y57440D2*
Y55440D1*
X53400Y43040D2*
Y45840D1*
X17500Y76510D2*
X15670D1*
X14800Y75640D1*
Y73840D1*
Y72240D1*
X15930Y71110D1*
X17300D1*
X14800Y73840D2*
D3*
X83467Y29560D2*
X82632D1*
X80768Y31425D1*
X73306D1*
X72988Y31107D1*
Y29949D1*
X72876Y29837D1*
X72671D1*
X70765Y27932D1*
X67907Y27885D2*
X70719D1*
X70765Y27932D1*
X29803Y13484D2*
Y14567D1*
X29775Y14596D1*
X96168Y23070D2*
Y24644D1*
X96291Y24767D1*
X98843Y25830D2*
X97354D1*
X96291Y24767D1*
X90294Y18406D2*
X95924D1*
X96291Y18773D1*
X90294Y24439D2*
X95963D1*
X96291Y24767D1*
X70765Y14324D2*
X79610D1*
X80450Y13484D1*
X86007D1*
X87436Y14913D1*
X86960D1*
X90294Y18406D2*
Y15548D1*
X89659Y14913D1*
X86960D1*
X98868Y17710D2*
X97354D1*
X96291Y18773D1*
X83467Y29560D2*
X88030D1*
X90294Y27297D1*
Y24439D1*
X29803Y13484D2*
X26700D1*
X21230D1*
X21071Y13643D1*
X19642Y11420D2*
X20119Y10944D1*
X66320D1*
X67272Y11896D1*
Y13643D1*
X67907Y14278D1*
X70719D1*
X70765Y14324D1*
X29800Y15140D2*
Y14621D1*
X15038Y19358D2*
X16626D1*
X17737Y18247D1*
X20913D1*
X21071Y13643D2*
Y18089D1*
X20913Y18247D1*
X75800Y46640D2*
Y46254D1*
X74293Y44747D1*
X26700Y21040D2*
Y13484D1*
X21100Y29540D2*
Y28240D1*
X93000Y37640D2*
Y38640D1*
X56100Y57440D2*
Y55740D1*
X56000Y55640D1*
X75200Y54840D2*
Y57640D1*
X92800Y66640D2*
X96200D1*
X73800Y65840D2*
X72400D1*
X70900D1*
X70800Y65740D1*
X54850Y57440D2*
Y59490D1*
X55400Y60040D1*
X68000D1*
X69000Y61040D1*
X72400Y65040D2*
Y65840D1*
Y62840D2*
Y65040D1*
X91000Y37640D2*
Y38640D1*
X57350Y57440D2*
Y54690D1*
X57400Y54640D1*
X93000Y54040D2*
Y55240D1*
X93600Y55840D1*
X96400D1*
X97600Y57040D1*
Y64040D1*
X98200Y64640D1*
X99600D1*
X98600Y59040D2*
X99600D1*
X89000Y54040D2*
Y55440D1*
X89800Y56240D1*
X92200D1*
X95000Y59040D1*
X96600D1*
X79000Y54040D2*
X77200D1*
X76200Y55040D1*
Y61440D1*
X75600Y62040D1*
X74400D1*
X74000Y62440D1*
Y63740D1*
X73800Y63940D1*
X75800Y48540D2*
Y52644D1*
X77198Y54042D1*
X12800Y78840D2*
Y76840D1*
X89000Y38640D2*
Y36840D1*
X88600Y36440D1*
X75000D1*
X74200Y37240D1*
X87000Y37640D2*
Y38640D1*
X98545Y78260D2*
X99656D1*
Y78736D1*
X24000Y72040D2*
Y71510D1*
X23600Y71110D1*
X24000Y77440D2*
Y76710D1*
X23800Y76510D1*
X30400Y75240D2*
X35200D1*
X39000Y78840D2*
X36000D1*
X31600Y74240D2*
X31400D1*
X30400Y75240D1*
X59800Y85640D2*
Y92696D1*
X59810Y92706D1*
X85000Y37640D2*
Y38640D1*
X96000Y74640D2*
X94400D1*
X58600Y57440D2*
Y54640D1*
X73800Y54240D2*
Y57640D1*
X83000Y37640D2*
Y38640D1*
X93200Y72640D2*
X98800D1*
X99600Y73440D1*
Y74640D1*
X12800Y80740D2*
Y82240D1*
X99656Y80636D2*
Y81276D1*
X39000Y77440D2*
X36000D1*
X31400Y68440D2*
Y68840D1*
X30400Y69840D1*
X34000Y68440D2*
X31400D1*
X61600Y85640D2*
Y89496D1*
X64810Y92706D1*
X23800Y75240D2*
X27600D1*
Y69840D2*
X23600D1*
X17500Y75240D2*
X16000D1*
X83000Y54040D2*
Y55640D1*
X82200Y56440D1*
X79200D1*
X78400Y57240D1*
Y61840D1*
X79200Y62640D1*
X83000D1*
X84400Y64040D1*
X64600Y47040D2*
X68200D1*
X69400Y48240D1*
X84400Y64040D2*
X92000D1*
X17300Y69840D2*
X16000D1*
X66000Y46040D2*
X68600D1*
X69400Y46840D1*
X81000Y54040D2*
Y55040D1*
X80200Y55840D1*
X78800D1*
X77800Y56840D1*
Y63040D1*
X78600Y63840D1*
X80600D1*
X80800Y64040D1*
X82400D1*
X82600Y64240D1*
X89800Y65240D2*
X87000D1*
X85000Y55040D2*
Y54040D1*
X87000Y55040D2*
Y54040D1*
X81000Y37640D2*
Y38640D1*
X64870Y57840D2*
Y51970D1*
X65000Y51840D1*
X91000Y55040D2*
Y54040D1*
X91400Y61640D2*
X80200D1*
X67410Y57840D2*
X68000D1*
X68600Y58440D1*
Y59440D1*
X69400Y60240D1*
X70000D1*
X46200Y57540D2*
Y56640D1*
X70765Y16024D2*
Y19042D1*
Y16024D2*
X63806D1*
X63462Y16368D1*
X67907Y26185D2*
X63780D1*
X63462Y25868D1*
X70765Y20312D2*
X68859D1*
X67907Y21264D1*
Y26185D1*
X86960Y19513D2*
X88067D1*
X89023Y20470D1*
X96168D1*
Y21120D2*
X87897D1*
X87436Y21581D1*
X79180D1*
X79021Y21422D1*
Y18088D1*
X77910Y16977D1*
X74893D1*
X73464Y18406D1*
Y21105D1*
X72988Y21581D1*
X70766D1*
X70765Y21582D1*
X96168Y21770D2*
X88359D1*
X87753Y22375D1*
X79021D1*
X78386Y21740D1*
Y18406D1*
X77751Y17771D1*
X75052D1*
X74576Y18247D1*
Y22534D1*
X74258Y22851D1*
X70766D1*
X70765Y22852D1*
X41700Y13640D2*
Y14521D1*
X41775Y14596D1*
X70765Y26662D2*
X69178D1*
X26200Y28440D2*
Y26710D1*
X24088Y24598D1*
X22182D1*
X20913Y25867D1*
X15038Y23108D2*
X17518D1*
X19007Y24598D1*
X19643D1*
X20913Y25867D1*
X41800Y15140D2*
Y14621D1*
X41775Y14596D1*
X43775Y13484D2*
Y14596D1*
X70765Y25392D2*
X69178D1*
X15038Y21858D2*
X17142D1*
X19484Y19517D1*
X22183D1*
X23453Y18247D1*
X43775Y13484D2*
Y13325D1*
X42981Y12531D1*
X23453D1*
X43800Y15140D2*
Y14621D1*
X43775Y14596D1*
X76765Y25392D2*
X78703D1*
X78704D1*
X56476Y18882D2*
Y17294D1*
X54571D1*
X53936Y16659D1*
Y13008D1*
X52507Y11579D1*
X21230D1*
X19960Y12849D1*
Y15707D1*
X18849Y16818D1*
X13927D1*
X13133Y17612D1*
Y19993D1*
X13748Y20608D1*
X15038D1*
X76765Y24122D2*
X78704Y24121D1*
X35800Y13540D2*
Y14571D1*
X35775Y14596D1*
X15038Y24358D2*
X17022D1*
X17102Y24439D1*
X35800Y15140D2*
Y14621D1*
X56476Y15394D2*
X59498D1*
X60128Y16024D1*
Y28567D1*
Y31107D2*
Y31583D1*
X59493Y32218D1*
X30121D1*
X29803Y31901D1*
Y30024D1*
X29775Y29996D1*
Y30313D1*
X27200D1*
X25517D1*
X23453Y28249D1*
Y28102D1*
Y25867D1*
X29800Y29440D2*
Y29971D1*
X26700Y22940D2*
Y25740D1*
X27200Y26240D1*
Y30313D1*
X23000Y29540D2*
Y28555D1*
X23453Y28102D1*
X43775Y29996D2*
X44728Y30948D1*
X52031D1*
X52666Y30313D1*
Y27614D1*
Y22851D1*
X53619Y21899D1*
X56640D1*
X53301Y27614D2*
X52666D1*
X43800Y29440D2*
Y29971D1*
X43775Y29996D1*
X56640Y25709D2*
X55047D1*
X33775Y14596D2*
Y13645D1*
X33773Y13643D1*
X33800Y15140D2*
Y14621D1*
X33775Y14596D1*
X39775Y29996D2*
Y31235D1*
X40123Y31583D1*
X54412D1*
X55682D1*
X56640Y30626D1*
Y29519D1*
X54412Y30948D2*
Y31583D1*
X39800Y29440D2*
Y29971D1*
X39775Y29996D1*
X33800Y29440D2*
Y29971D1*
X33775Y29996D1*
X35800Y29440D2*
Y29971D1*
X35775Y29996D1*
X31800Y29440D2*
Y29971D1*
X31775Y29996D1*
X41800Y29440D2*
Y29971D1*
X41775Y29996D1*
X37800Y29440D2*
Y29971D1*
X37775Y29996D1*
X31800Y15140D2*
Y14621D1*
X31775Y14596D1*
X37800Y15140D2*
Y14621D1*
X37775Y14596D1*
X39800Y15140D2*
Y14621D1*
X39775Y14596D1*
D52*
X19642Y11420D3*
X21071Y13643D3*
X70765Y29837D3*
X56476Y18882D3*
X60128Y28567D3*
Y31107D3*
X35800Y13540D3*
X41700Y13640D3*
X43775Y13484D3*
X29803D3*
X99656Y81276D3*
X94259Y76514D3*
X58400Y70440D3*
X67400Y61640D3*
X12800Y82240D3*
X74200Y37240D3*
X12800Y76840D3*
X16000Y75240D3*
Y69840D3*
X79000Y37640D3*
X81000D3*
X83000D3*
X85000D3*
X87000D3*
X91000D3*
X93000D3*
X46200Y60040D3*
X54200Y70440D3*
X35200Y75240D3*
X24000Y72040D3*
Y77440D3*
X85000Y55040D3*
X87000D3*
X96600Y59040D3*
X98600D3*
X91000Y55040D3*
X98545Y78260D3*
X93200Y72640D3*
X94400Y74640D3*
X91400Y61640D3*
X80200D3*
X70000Y60240D3*
X65000Y51840D3*
X82600Y64240D3*
X87000Y65240D3*
X69400Y46840D3*
X66000Y46040D3*
X64600Y47040D3*
X84800Y69640D3*
X80000D3*
X76800Y65840D3*
X58600Y54640D3*
X73800Y57640D3*
Y54240D3*
X57400Y54640D3*
X56000Y55640D3*
X46200Y56640D3*
X69000Y61040D3*
X72400Y65040D3*
Y62840D3*
X69400Y48240D3*
X92000Y64040D3*
X89800Y65240D3*
X75200Y54840D3*
Y57640D3*
X92800Y66640D3*
X96200D3*
X55000Y42440D3*
X59800Y85640D3*
X61600D3*
X36000Y78840D3*
Y77440D3*
X39000Y78840D3*
Y77440D3*
X31600Y74240D3*
X31400Y68440D3*
X34000D3*
X53600Y55440D3*
X14800Y73840D3*
X53400Y43040D3*
Y45840D3*
X90294Y24439D3*
Y18406D3*
X88547Y17294D3*
X76322Y29837D3*
X78704Y25392D3*
Y24121D3*
X69178Y26662D3*
Y25392D3*
X55047Y25709D3*
X33773Y13643D3*
X53301Y27614D3*
X54412Y30948D3*
X26200Y28440D3*
X17102Y24439D3*
X23453Y12531D3*
X33800Y29440D3*
X35800D3*
X29800D3*
X31800D3*
X41800D3*
X43800D3*
X37800D3*
X39800D3*
X33800Y15140D3*
X35800D3*
X29800D3*
X31800D3*
X41800D3*
X43800D3*
X37800D3*
X39800D3*
X21100Y28240D3*
D19*
X93000Y54040D3*
X91000D3*
X89000D3*
X87000D3*
X85000D3*
X83000D3*
X81000D3*
X79000D3*
Y38640D3*
X81000D3*
X83000D3*
X85000D3*
X87000D3*
X89000D3*
X91000D3*
X93000D3*
D20*
X29012Y94294D3*
D21*
X23932D3*
D22*
X16312Y94243D3*
X13772Y94294D3*
D20*
X78860Y97786D3*
D21*
X83940D3*
D22*
X91560Y97837D3*
X94100Y97786D3*
D21*
X35200Y48040D3*
Y53090D3*
D22*
X72900Y43040D3*
Y48040D3*
D23*
X23456Y89373D3*
X28456D3*
X33456D3*
X78543D3*
X83543D3*
X88543D3*
D25*
X73800Y65840D3*
Y63940D3*
X76100Y64890D3*
D27*
X23800Y75240D3*
X17500D3*
X23800Y76510D3*
X17500D3*
D20*
X48000Y92640D3*
D21*
X53000D3*
D28*
X70800Y63840D3*
Y65740D3*
D29*
X53600Y57440D3*
X54850D3*
X56100D3*
X57350D3*
X58600D3*
D28*
X96000Y74640D3*
Y76540D3*
X99600Y74640D3*
Y76540D3*
Y64640D3*
Y66540D3*
D31*
X53600Y72240D3*
X58404D3*
D28*
X99600Y59040D3*
Y60940D3*
D20*
X59810Y92706D3*
D21*
X64810D3*
D28*
X12800Y78840D3*
Y80740D3*
X99656Y78736D3*
Y80636D3*
D22*
X37600Y89840D3*
Y95780D3*
X71400Y89640D3*
Y95580D3*
D32*
X42800Y74440D3*
D33*
X32024Y85216D3*
D32*
X69200Y74440D3*
D33*
X79976Y85216D3*
D27*
X23600Y69840D3*
X17300D3*
X23600Y71110D3*
X17300D3*
D34*
X30400Y69840D3*
X27600D3*
D35*
X63600Y57840D3*
D36*
X64870D3*
X66140D3*
X67410D3*
D28*
X84400Y64040D3*
Y65940D3*
X80800Y64040D3*
Y65940D3*
D34*
X30400Y75240D3*
X27600D3*
D25*
X46200Y59440D3*
Y57540D3*
X48500Y58490D3*
D37*
X82800Y71040D3*
X84700D3*
D35*
X70000Y57840D3*
D36*
X71270D3*
D38*
X70765Y27932D3*
Y26662D3*
Y25392D3*
Y24122D3*
Y22852D3*
Y21582D3*
Y20312D3*
Y19042D3*
X76765D3*
Y20312D3*
Y21582D3*
Y22852D3*
Y24122D3*
Y25392D3*
Y26662D3*
Y27932D3*
D40*
X96168Y20470D3*
Y21120D3*
Y21770D3*
Y22420D3*
Y23070D3*
D41*
X96291Y18773D3*
Y24767D3*
D42*
X98868Y17710D3*
X98843Y25830D3*
Y20570D3*
Y22970D3*
D43*
X86960Y14913D3*
Y17213D3*
Y19513D3*
D44*
X81159Y17213D3*
D45*
X83467Y24756D3*
Y29560D3*
D46*
X74576Y29837D3*
X72876D3*
D47*
X63462Y25868D3*
Y16368D3*
D48*
X67907Y26185D3*
Y27885D3*
X70765Y16024D3*
Y14324D3*
D49*
X15038Y19358D3*
Y20608D3*
Y21858D3*
Y23108D3*
Y24358D3*
D50*
X23453Y18247D3*
D51*
X20913D3*
X23453Y20787D3*
X20913D3*
X23453Y23327D3*
X20913D3*
X23453Y25867D3*
X20913D3*
D25*
X56476Y17294D3*
Y15394D3*
X58776Y16344D3*
D28*
X75800Y48540D3*
Y46640D3*
D37*
X58540Y21899D3*
X56640D3*
X58540Y25709D3*
X56640D3*
X58540Y29519D3*
X56640D3*
D19*
X43775Y29996D3*
X41775D3*
X39775D3*
X37775D3*
X35775D3*
X33775D3*
X31775D3*
X29775D3*
Y14596D3*
X31775D3*
X33775D3*
X35775D3*
X37775D3*
X39775D3*
X41775D3*
X43775D3*
D28*
X26700Y22940D3*
Y21040D3*
D37*
X23000Y29540D3*
X21100D3*
M02*
